<?xml version="1.0" encoding="UTF-8" standalone="no"?>
<!-- Created with Inkscape (http://www.inkscape.org/) -->

<svg
   width="37.190453mm"
   height="37.190464mm"
   viewBox="0 0 37.190453 37.190464"
   version="1.1"
   id="svg1"
   inkscape:version="1.3.2 (091e20e, 2023-11-25)"
   sodipodi:docname="dg-logo.svg"
   xmlns:inkscape="http://www.inkscape.org/namespaces/inkscape"
   xmlns:sodipodi="http://sodipodi.sourceforge.net/DTD/sodipodi-0.dtd"
   xmlns="http://www.w3.org/2000/svg"
   xmlns:svg="http://www.w3.org/2000/svg">
  <sodipodi:namedview
     id="namedview1"
     pagecolor="#ffffff"
     bordercolor="#000000"
     borderopacity="0.25"
     inkscape:showpageshadow="2"
     inkscape:pageopacity="0.0"
     inkscape:pagecheckerboard="0"
     inkscape:deskcolor="#d1d1d1"
     inkscape:document-units="mm"
     showguides="true"
     inkscape:zoom="0.92982143"
     inkscape:cx="396.85039"
     inkscape:cy="490.41675"
     inkscape:window-width="1440"
     inkscape:window-height="795"
     inkscape:window-x="0"
     inkscape:window-y="25"
     inkscape:window-maximized="0"
     inkscape:current-layer="layer1" />
  <defs
     id="defs1" />
  <g
     inkscape:label="Camada 1"
     inkscape:groupmode="layer"
     id="layer1"
     transform="translate(-101.68495,-163.34808)">
    <rect
       style="fill:#14534b;fill-opacity:0.992157;stroke:none;stroke-width:0.522825"
       id="rect1-3-7"
       width="37.19046"
       height="37.190464"
       x="101.68495"
       y="163.34807"
       ry="8.2969456"
       inkscape:export-filename="caminho.svg"
       inkscape:export-xdpi="96"
       inkscape:export-ydpi="96" />
    <path
       style="font-weight:600;font-size:26.4583px;font-family:'Apple SD Gothic Neo';-inkscape-font-specification:'Apple SD Gothic Neo Semi-Bold';fill:#f9f9f9;stroke-width:1.42915"
       d="m 107.04833,191.01848 h 5.71499 c 5.82083,0 8.54603,-3.30729 8.54603,-9.02228 v -0.55562 c 0,-5.79437 -3.09562,-8.54603 -8.59895,-8.54603 h -5.66207 z m 2.7252,-2.27541 v -13.57311 h 2.72521 c 3.75708,0 5.87374,1.50812 5.87374,6.27062 v 0.89958 c 0,4.55083 -1.74625,6.40291 -5.55624,6.40291 z"
       id="text1-1-8"
       aria-label="D" />
    <path
       style="font-weight:600;font-size:26.4583px;font-family:'Apple SD Gothic Neo';-inkscape-font-specification:'Apple SD Gothic Neo Semi-Bold';fill:#f9f9f9;stroke-width:1.42915"
       d="m 127.71768,191.30952 c 2.38125,0 4.39208,-0.5027 5.79437,-1.08479 v -8.22853 h -6.32353 v 2.16958 h 3.59832 v 4.445 c -0.71437,0.29104 -1.90499,0.44979 -3.0427,0.44979 -4.52437,0 -5.66208,-2.83104 -5.66208,-6.74687 v -0.84666 c 0,-3.46604 1.40229,-6.61458 5.76791,-6.61458 2.43417,0 3.81,0.60854 4.92125,1.08479 v -2.27541 c -1.08479,-0.55563 -2.56646,-1.08479 -4.86833,-1.08479 -4.57729,0 -8.73124,2.30187 -8.73124,9.23394 v 0.52917 c 0,6.29707 3.3602,8.96936 8.54603,8.96936 z"
       id="text2-3-8"
       aria-label="G" />
  </g>
</svg>
